# xmcd CD database file
# Generated: Thu May 3 10:58:02 2001 by KSCD
# 
# Track frame offsets:
#       150
#       16682
#       30907
#       48742
#       66189
#       79716
#       99814
#       116752
#       129262
#       142733
#       159601
#
# Disc length: 2440 seconds
#
# Revision: 4
# Processed by: cddbd v1.4b41PL1 Copyright (c) Steve Scherf et al.
# Submitted via: Kscd 1.2.7
#
DISCID=7c09860b
DTITLE=Ric Steinke - Pullin' Strings
DYEAR=1900
DGENRE=
TTITLE0=Just A Little
TTITLE1=Fools Gold
TTITLE2=Ride On
TTITLE3=Until That Moment
TTITLE4=Goodbye Memories
TTITLE5=Real Go-Getter
TTITLE6=The Cowboy is a Dreamer
TTITLE7=Hold On
TTITLE8=Keepin' Company With The Blues
TTITLE9=The Last Chance I Take
TTITLE10=Letters From Home - Goin' Home
EXTD=http://www.steinke-hausler.com/
EXTT0=
EXTT1=
EXTT2=
EXTT3=
EXTT4=
EXTT5=
EXTT6=
EXTT7=
EXTT8=
EXTT9=
EXTT10=
PLAYORDER=
